<svg width="40" height="41" viewBox="0 0 40 41" fill="none" xmlns="http://www.w3.org/2000/svg">
<path d="M20 29.14C17 29.14 14.348 27.604 12.8 25.3C12.836 22.9 17.6 21.58 20 21.58C22.4 21.58 27.164 22.9 27.2 25.3C26.4067 26.4813 25.335 27.4494 24.0795 28.119C22.8239 28.7886 21.423 29.1393 20 29.14ZM20 12.1C20.9548 12.1 21.8705 12.4793 22.5456 13.1544C23.2207 13.8295 23.6 14.7452 23.6 15.7C23.6 16.6548 23.2207 17.5705 22.5456 18.2456C21.8705 18.9207 20.9548 19.3 20 19.3C19.0452 19.3 18.1295 18.9207 17.4544 18.2456C16.7793 17.5705 16.4 16.6548 16.4 15.7C16.4 14.7452 16.7793 13.8295 17.4544 13.1544C18.1295 12.4793 19.0452 12.1 20 12.1ZM20 8.5C18.4241 8.5 16.8637 8.81039 15.4078 9.41345C13.9519 10.0165 12.629 10.9004 11.5147 12.0147C9.26428 14.2652 8 17.3174 8 20.5C8 23.6826 9.26428 26.7348 11.5147 28.9853C12.629 30.0996 13.9519 30.9835 15.4078 31.5866C16.8637 32.1896 18.4241 32.5 20 32.5C23.1826 32.5 26.2348 31.2357 28.4853 28.9853C30.7357 26.7348 32 23.6826 32 20.5C32 13.864 26.6 8.5 20 8.5Z" fill="white"/>
</svg>
