<svg width="50" height="64" viewBox="0 0 50 64" fill="none" xmlns="http://www.w3.org/2000/svg">
<path d="M6.97727 62H5.89727V55H7.64727L9.99727 60.87H10.0773L12.4273 55H14.1773V62H13.0973V56.18H13.0073L10.6573 61.99H9.41727L7.06727 56.18H6.97727V62ZM17.875 63.44H16.775L17.455 61.98L17.195 61.44L15.075 56.8H16.185L17.965 60.8H18.005L19.775 56.8H20.885L17.875 63.44ZM26.2402 62.15C25.3402 62.15 24.6402 61.89 24.1302 61.37C23.6302 60.84 23.3802 60.19 23.3902 59.4C23.4002 58.61 23.6502 57.95 24.1502 57.43C24.6502 56.91 25.3502 56.65 26.2402 56.65C27.6902 56.65 28.6502 57.43 28.8502 58.67H27.8202C27.6102 57.95 27.0802 57.59 26.2402 57.59C25.1202 57.59 24.4302 58.33 24.4302 59.4C24.4302 60.47 25.1202 61.21 26.2402 61.21C27.0802 61.21 27.6102 60.85 27.8202 60.13H28.8502C28.6402 61.37 27.6902 62.15 26.2402 62.15ZM32.35 56.65C34.07 56.65 34.83 57.2 34.83 58.31V62H33.92L33.82 61.41L33.93 61.15C33.38 61.8 32.48 62.15 31.51 62.15C30.31 62.15 29.65 61.57 29.65 60.53C29.65 59.52 30.26 59.02 31.48 59.02H33.76V58.43C33.76 57.75 33.37 57.47 32.33 57.47C31.36 57.47 30.98 57.71 30.93 58.2H29.98C29.96 57.17 30.75 56.65 32.35 56.65ZM31.78 61.32H31.94C32.65 61.32 33.36 61.04 33.76 60.67V59.71H31.64C31.03 59.71 30.72 59.97 30.72 60.48C30.72 61.04 31.07 61.32 31.78 61.32ZM38.9905 56.65C40.2405 56.65 40.9205 57.42 40.9205 58.63V58.95H39.9305V58.85C39.9305 58.04 39.5005 57.58 38.6705 57.58C37.7605 57.58 37.1905 58.09 37.1905 59.18V62H36.1305V56.8H37.1605L37.1905 57.6L37.1205 57.82C37.5105 57.04 38.1305 56.65 38.9905 56.65ZM45.398 56.8V57.71H43.968V60.24C43.968 60.84 44.208 61.1 44.848 61.1H45.398V62.05H44.648C43.408 62.05 42.908 61.46 42.908 60.34V57.71H41.768V56.8H42.908V55H43.968V56.8H45.398Z" fill="white"/>
<g clip-path="url(#clip0_544_41066)">
<path d="M31.9648 38C31.4908 38 31.0275 37.8614 30.6334 37.6017C30.2393 37.3419 29.9321 36.9728 29.7507 36.5409C29.5693 36.109 29.5219 35.6337 29.6143 35.1752C29.7068 34.7167 29.9351 34.2956 30.2702 33.965C30.6054 33.6345 31.0324 33.4093 31.4972 33.3181C31.9621 33.2269 32.444 33.2738 32.8819 33.4526C33.3198 33.6315 33.694 33.9345 33.9574 34.3232C34.2207 34.7119 34.3612 35.1689 34.3612 35.6364C34.3612 36.2632 34.1088 36.8644 33.6593 37.3077C33.2099 37.751 32.6004 38 31.9648 38ZM31.9648 34.4545C31.7278 34.4545 31.4961 34.5239 31.2991 34.6537C31.102 34.7836 30.9484 34.9682 30.8577 35.1841C30.767 35.4001 30.7433 35.6377 30.7896 35.8669C30.8358 36.0962 30.9499 36.3068 31.1175 36.472C31.2851 36.6373 31.4986 36.7499 31.731 36.7955C31.9634 36.8411 32.2044 36.8177 32.4233 36.7282C32.6423 36.6388 32.8294 36.4873 32.9611 36.2929C33.0927 36.0986 33.163 35.8701 33.163 35.6364C33.163 35.3229 33.0368 35.0223 32.8121 34.8007C32.5873 34.5791 32.2826 34.4545 31.9648 34.4545ZM21.1806 38C20.7066 38 20.2433 37.8614 19.8492 37.6017C19.4551 37.3419 19.148 36.9728 18.9666 36.5409C18.7852 36.109 18.7377 35.6337 18.8302 35.1752C18.9227 34.7167 19.1509 34.2956 19.4861 33.965C19.8212 33.6345 20.2482 33.4093 20.7131 33.3181C21.178 33.2269 21.6598 33.2738 22.0977 33.4526C22.5356 33.6315 22.9099 33.9345 23.1732 34.3232C23.4365 34.7119 23.5771 35.1689 23.5771 35.6364C23.5771 36.2632 23.3246 36.8644 22.8752 37.3077C22.4258 37.751 21.8162 38 21.1806 38ZM21.1806 34.4545C20.9436 34.4545 20.712 34.5239 20.5149 34.6537C20.3179 34.7836 20.1643 34.9682 20.0736 35.1841C19.9829 35.4001 19.9592 35.6377 20.0054 35.8669C20.0516 36.0962 20.1658 36.3068 20.3333 36.472C20.5009 36.6373 20.7144 36.7499 20.9469 36.7955C21.1793 36.8411 21.4202 36.8177 21.6392 36.7282C21.8581 36.6388 22.0453 36.4873 22.1769 36.2929C22.3086 36.0986 22.3789 35.8701 22.3789 35.6364C22.3789 35.3229 22.2526 35.0223 22.0279 34.8007C21.8032 34.5791 21.4984 34.4545 21.1806 34.4545ZM33.858 32.0909H19.4791C19.1483 32.0913 18.8267 31.9837 18.5644 31.7849C18.3021 31.5861 18.1139 31.3072 18.0293 30.9918L13.5838 13.3945C13.5656 13.3332 13.5278 13.2793 13.476 13.2409C13.4241 13.2026 13.361 13.1818 13.2962 13.1818H8V12H13.2962C13.627 11.9996 13.9487 12.1072 14.2109 12.306C14.4732 12.5048 14.6614 12.7837 14.7461 13.0991L15.6687 16.7273H36.4462C36.6781 16.7187 36.9089 16.7634 37.1203 16.8579C37.3318 16.9524 37.518 17.094 37.6644 17.2717C37.8108 17.4493 37.9134 17.6581 37.964 17.8815C38.0146 18.1049 38.0118 18.3369 37.956 18.5591L35.3198 30.9091C35.2552 31.2438 35.0735 31.5456 34.8063 31.7616C34.5391 31.9776 34.2035 32.0941 33.858 32.0909ZM15.9563 17.9091L19.1915 30.6964C19.2097 30.7577 19.2475 30.8116 19.2994 30.85C19.3512 30.8884 19.4143 30.9091 19.4791 30.9091H33.858C33.9244 30.9084 33.9886 30.8859 34.0407 30.8453C34.0927 30.8047 34.1296 30.7481 34.1456 30.6845L36.7577 18.3109C36.7778 18.2704 36.7883 18.226 36.7883 18.1809C36.7883 18.1358 36.7778 18.0914 36.7577 18.0509C36.7331 18.0083 36.6985 17.9721 36.6568 17.9454C36.6151 17.9187 36.5676 17.9022 36.5181 17.8973L15.9563 17.9091Z" fill="white"/>
</g>
<defs>
<clipPath id="clip0_544_41066">
<rect width="50" height="50" fill="white"/>
</clipPath>
</defs>
</svg>
