<svg width="56" height="64" viewBox="0 0 56 64" fill="none" xmlns="http://www.w3.org/2000/svg">
<path d="M6.60566 55V55.97H1.84566V58.2H6.34566V59.18H1.84566V62H0.755664V55H6.60566ZM9.69863 56.65C11.4186 56.65 12.1786 57.2 12.1786 58.31V62H11.2686L11.1686 61.41L11.2786 61.15C10.7286 61.8 9.82863 62.15 8.85863 62.15C7.65863 62.15 6.99863 61.57 6.99863 60.53C6.99863 59.52 7.60863 59.02 8.82863 59.02H11.1086V58.43C11.1086 57.75 10.7186 57.47 9.67863 57.47C8.70863 57.47 8.32863 57.71 8.27863 58.2H7.32863C7.30863 57.17 8.09863 56.65 9.69863 56.65ZM9.12863 61.32H9.28863C9.99863 61.32 10.7086 61.04 11.1086 60.67V59.71H8.98863C8.37863 59.71 8.06863 59.97 8.06863 60.48C8.06863 61.04 8.41863 61.32 9.12863 61.32ZM16.0589 62H14.9589L12.6189 56.8H13.7189L15.4889 60.81H15.5289L17.2889 56.8H18.3889L16.0589 62ZM23.373 61.37C22.863 61.89 22.183 62.15 21.313 62.15C20.443 62.15 19.753 61.89 19.243 61.37C18.733 60.84 18.483 60.19 18.483 59.4C18.483 58.61 18.733 57.96 19.243 57.44C19.753 56.91 20.443 56.65 21.313 56.65C22.183 56.65 22.863 56.91 23.373 57.44C23.883 57.96 24.143 58.61 24.143 59.4C24.143 60.19 23.883 60.84 23.373 61.37ZM20.003 60.71C20.323 61.04 20.763 61.21 21.313 61.21C21.863 61.21 22.303 61.04 22.623 60.71C22.943 60.37 23.103 59.93 23.103 59.4C23.103 58.87 22.943 58.43 22.623 58.1C22.303 57.76 21.863 57.59 21.313 57.59C20.763 57.59 20.323 57.76 20.003 58.1C19.683 58.43 19.523 58.87 19.523 59.4C19.523 59.93 19.683 60.37 20.003 60.71ZM29.4779 59.53V56.8H30.5379V62H29.5179L29.4779 61.2L29.6079 60.81C29.2079 61.7 28.4779 62.15 27.4179 62.15C25.9679 62.15 25.2079 61.3 25.2079 59.79V56.8H26.2679V59.58C26.2679 60.67 26.7779 61.22 27.7879 61.22C28.8179 61.22 29.4779 60.64 29.4779 59.53ZM34.6985 56.65C35.9485 56.65 36.6285 57.42 36.6285 58.63V58.95H35.6385V58.85C35.6385 58.04 35.2085 57.58 34.3785 57.58C33.4685 57.58 32.8985 58.09 32.8985 59.18V62H31.8385V56.8H32.8685L32.8985 57.6L32.8285 57.82C33.2185 57.04 33.8385 56.65 34.6985 56.65ZM38.326 55.71C37.966 55.71 37.726 55.46 37.726 55.14C37.726 54.82 37.966 54.56 38.326 54.56C39.126 54.52 39.126 55.76 38.326 55.71ZM38.856 62H37.796V56.8H38.856V62ZM43.5181 56.8V57.71H42.0881V60.24C42.0881 60.84 42.3281 61.1 42.9681 61.1H43.5181V62.05H42.7681C41.5281 62.05 41.0281 61.46 41.0281 60.34V57.71H39.8881V56.8H41.0281V55H42.0881V56.8H43.5181ZM49.6875 59.79H45.1975C45.3275 60.76 45.9575 61.32 47.0475 61.32C47.7575 61.32 48.2375 61.08 48.4875 60.59H49.5075C49.1775 61.56 48.2475 62.15 46.9675 62.15C46.0775 62.15 45.3775 61.89 44.8775 61.38C44.3775 60.86 44.1275 60.2 44.1275 59.4C44.1275 58.61 44.3775 57.95 44.8675 57.43C45.3675 56.91 46.0575 56.65 46.9475 56.65C47.8375 56.65 48.5375 56.93 49.0375 57.48C49.5375 58.03 49.7575 58.8 49.6875 59.79ZM46.9475 57.46C45.8775 57.46 45.2675 58.06 45.1775 59.11H48.6775C48.5475 58.01 47.9775 57.46 46.9475 57.46ZM53.0224 62.15C51.4624 62.15 50.6524 61.61 50.5924 60.53H51.5624C51.6524 61.1 52.0924 61.34 53.0624 61.34C54.0324 61.34 54.5124 61.13 54.5124 60.54C54.5124 60.09 54.2324 59.91 53.5524 59.84L52.3324 59.72C51.1724 59.61 50.6424 59.13 50.6424 58.24C50.6424 57.18 51.4524 56.65 53.0724 56.65C54.5724 56.65 55.3524 57.2 55.4024 58.29H54.4424C54.3524 57.72 53.9924 57.45 53.0324 57.45C52.1224 57.45 51.6724 57.71 51.6724 58.23C51.6724 58.66 51.9424 58.88 52.6624 58.95L53.8924 59.07C55.0524 59.18 55.5324 59.59 55.5424 60.47C55.5524 61.62 54.7024 62.15 53.0224 62.15Z" fill="white"/>
<g clip-path="url(#clip0_544_41051)">
<path d="M39.8342 25.9149C42.7219 22.9659 42.7219 18.1677 39.8342 15.2188C38.4337 13.7879 36.5706 13 34.589 13C32.6074 13 30.7431 13.7879 29.3421 15.2188L28 16.5889L26.6579 15.2188C25.2569 13.7879 23.3938 13 21.4116 13C19.43 13 17.5668 13.7879 16.1658 15.2188C13.2781 18.1677 13.2781 22.9659 16.1658 25.9149L28 38L39.8342 25.9149ZM16.9956 16.0474C18.1754 14.8422 19.7445 14.1786 21.4116 14.1786C23.0793 14.1786 24.6483 14.8422 25.8282 16.0474L28 18.2655L30.1718 16.0474C31.3517 14.8422 32.9207 14.1786 34.5884 14.1786C36.2561 14.1786 37.8246 14.8422 39.0044 16.0474C41.4452 18.5396 41.4452 22.5941 39.0044 25.0863L28 36.324L16.9956 25.0863C14.5548 22.5941 14.5548 18.539 16.9956 16.0474Z" fill="white"/>
</g>
<defs>
<clipPath id="clip0_544_41051">
<rect width="50" height="50" fill="white" transform="translate(3)"/>
</clipPath>
</defs>
</svg>
