<svg width="50" height="64" viewBox="0 0 50 64" fill="none" xmlns="http://www.w3.org/2000/svg">
<path d="M10.9847 62H9.84473L9.39473 60.98H5.18473L4.73473 62H3.59473L6.70473 55H7.88473L10.9847 62ZM7.29473 56.19L5.57473 60.09H9.00473L7.29473 56.19ZM13.9775 62.15C13.0775 62.15 12.3775 61.89 11.8675 61.37C11.3675 60.84 11.1175 60.19 11.1275 59.4C11.1375 58.61 11.3875 57.95 11.8875 57.43C12.3875 56.91 13.0875 56.65 13.9775 56.65C15.4275 56.65 16.3875 57.43 16.5875 58.67H15.5575C15.3475 57.95 14.8175 57.59 13.9775 57.59C12.8575 57.59 12.1675 58.33 12.1675 59.4C12.1675 60.47 12.8575 61.21 13.9775 61.21C14.8175 61.21 15.3475 60.85 15.5575 60.13H16.5875C16.3775 61.37 15.4275 62.15 13.9775 62.15ZM20.2373 62.15C19.3373 62.15 18.6373 61.89 18.1273 61.37C17.6273 60.84 17.3773 60.19 17.3873 59.4C17.3973 58.61 17.6473 57.95 18.1473 57.43C18.6473 56.91 19.3473 56.65 20.2373 56.65C21.6873 56.65 22.6473 57.43 22.8473 58.67H21.8173C21.6073 57.95 21.0773 57.59 20.2373 57.59C19.1173 57.59 18.4273 58.33 18.4273 59.4C18.4273 60.47 19.1173 61.21 20.2373 61.21C21.0773 61.21 21.6073 60.85 21.8173 60.13H22.8473C22.6373 61.37 21.6873 62.15 20.2373 62.15ZM28.5371 61.37C28.0271 61.89 27.3471 62.15 26.4771 62.15C25.6071 62.15 24.9171 61.89 24.4071 61.37C23.8971 60.84 23.6471 60.19 23.6471 59.4C23.6471 58.61 23.8971 57.96 24.4071 57.44C24.9171 56.91 25.6071 56.65 26.4771 56.65C27.3471 56.65 28.0271 56.91 28.5371 57.44C29.0471 57.96 29.3071 58.61 29.3071 59.4C29.3071 60.19 29.0471 60.84 28.5371 61.37ZM25.1671 60.71C25.4871 61.04 25.9271 61.21 26.4771 61.21C27.0271 61.21 27.4671 61.04 27.7871 60.71C28.1071 60.37 28.2671 59.93 28.2671 59.4C28.2671 58.87 28.1071 58.43 27.7871 58.1C27.4671 57.76 27.0271 57.59 26.4771 57.59C25.9271 57.59 25.4871 57.76 25.1671 58.1C24.8471 58.43 24.6871 58.87 24.6871 59.4C24.6871 59.93 24.8471 60.37 25.1671 60.71ZM34.6419 59.53V56.8H35.7019V62H34.6819L34.6419 61.2L34.7719 60.81C34.3719 61.7 33.6419 62.15 32.5819 62.15C31.1319 62.15 30.3719 61.3 30.3719 59.79V56.8H31.4319V59.58C31.4319 60.67 31.9419 61.22 32.9519 61.22C33.9819 61.22 34.6419 60.64 34.6419 59.53ZM40.1225 56.65C41.5725 56.65 42.3325 57.5 42.3325 59.01V62H41.2725V59.22C41.2725 58.13 40.7625 57.58 39.7525 57.58C38.7225 57.58 38.0625 58.16 38.0625 59.27V62H37.0025V56.8H38.0325L38.0625 57.6L37.9325 57.99C38.3325 57.1 39.0625 56.65 40.1225 56.65ZM46.2505 56.8V57.71H44.8205V60.24C44.8205 60.84 45.0605 61.1 45.7005 61.1H46.2505V62.05H45.5005C44.2605 62.05 43.7605 61.46 43.7605 60.34V57.71H42.6205V56.8H43.7605V55H44.8205V56.8H46.2505Z" fill="white"/>
<g clip-path="url(#clip0_544_41058)">
<path d="M31.6489 18.9535C31.6489 22.5047 28.6853 25.407 25.0002 25.407C21.3151 25.407 18.3516 22.5047 18.3516 18.9535C18.3516 15.4023 21.3151 12.5 25.0002 12.5C28.6853 12.5 31.6489 15.4023 31.6489 18.9535Z" stroke="white"/>
<path d="M35.0676 37.3332C34.8447 37.4398 34.5928 37.5 34.3243 37.5H15.6757C14.7367 37.5 14 36.763 14 35.8837C14 30.997 18.0771 27.0116 23.1351 27.0116H26.8649C31.9229 27.0116 36 30.997 36 35.8837C36 36.2109 35.898 36.5183 35.7216 36.7754L35.4185 36.297C35.3908 36.3073 35.3138 36.3373 35.2389 36.4051C35.146 36.4893 35.0676 36.623 35.0676 36.7907V37.3332ZM35.6184 36.7907H35.711C35.6981 36.809 35.6848 36.8271 35.6711 36.8449C35.6637 36.8547 35.6561 36.8643 35.6485 36.8739C35.6452 36.8779 35.642 36.8818 35.6388 36.8858L35.6254 36.8502L35.6032 36.7907H35.6184ZM35.7313 36.7907H36.0676C36.0676 36.8591 36.0529 36.9305 36.0204 36.9984C35.9967 37.0478 35.9674 37.0874 35.9388 37.1181L35.7313 36.7907Z" stroke="white"/>
</g>
<defs>
<clipPath id="clip0_544_41058">
<rect width="50" height="50" fill="white"/>
</clipPath>
</defs>
</svg>
