<svg width="1256" height="6076" viewBox="0 0 1256 6076" fill="none" xmlns="http://www.w3.org/2000/svg">
  <g filter="url(#filter0_b_2755_31113)">
    <path id="scroll-line"
      d="M 63.627 0 C 63.627 13.1823 63.627 20.6148 63.627 33.7145 C 63.627 33.9028 63.6245 34.0845 63.6208 34.2728 C 63.5751 36.6081 63.3869 53.3932 67.127 63.5 C 75.1409 85.1561 83.627 91.5 111.127 103 S 167.127 118 223.127 122 S 311.196 126.946 366.127 139 C 419.205 150.647 449.683 157.89 498.627 181.5 C 550.04 206.301 581.744 220.8 619.627 263.5 C 640.94 287.523 657.621 300.775 665.127 332 C 669.941 352.021 665.69 383.986 665.177 387.654 C 665.143 387.892 665.106 388.117 665.065 388.353 C 664.464 391.793 659.88 419.55 665.127 436.5 C 672.425 460.072 698.627 472.5 716.627 481 C 734.628 489.5 759.083 495.065 787.127 500.5 C 829.794 508.769 854.79 505.224 898.127 508.5 C 937.775 511.497 960.008 513.151 999.627 516.5 C 1032.44 519.274 1049.63 518 1083.63 524 C 1115.18 529.568 1143.72 542.888 1147.66 544.776 C 1147.99 544.93 1148.27 545.078 1148.58 545.254 C 1151.98 547.198 1173.88 559.909 1182.63 570.5 C 1191.63 581.394 1194.36 591.322 1195.13 606 C 1196.04 623.276 1191.92 631.019 1182.63 648.5 C 1170.51 671.293 1159.94 687.698 1157.61 691.27 C 1157.29 691.763 1156.94 692.23 1156.57 692.687 C 1151.1 699.442 1106.19 754.356 1069.63 782.5 C 1039.18 805.937 1019.08 817.917 981.627 826.5 C 933.627 837.5 748.127 862 698.627 862 C 666.371 862 423.738 882.079 392.127 888.5 C 360.127 895 265.165 911.516 250.127 944.5 C 175.127 1109 740.127 1083 736.127 1175.5 S 731.611 1251.38 728.627 1300 C 724.748 1363.21 718.525 1460.76 718.146 1466.71 C 718.133 1466.91 718.119 1467.09 718.101 1467.29 C 714.486 1505.99 707.127 1557.71 707.127 1566 C 707.127 1566.5 701.127 1637.5 701.127 1677.5 C 701.127 1709.42 702.711 1774.1 739.127 1817.5 C 770.142 1854.46 765.403 1847.4 804.627 1875.5 C 837.032 1898.71 877.127 1906 897.627 1914 C 917.243 1921.66 978.523 1923.82 983.769 1923.99 C 984.036 1924 984.261 1924.01 984.528 1924.03 L 1062.13 1929.5 L 1124.63 1935 L 1160.46 1938.48 C 1160.57 1938.49 1160.68 1938.5 1160.79 1938.51 C 1162.33 1938.64 1174.46 1939.63 1193.13 1941.5 C 1213.13 1943.5 1216.13 1959.5 1222.13 1972.5 S 1248.13 2039.5 1252.13 2050.5 C 1257.6 2065.54 1248.55 2084.5 1232.54 2084.5 H 1221.13 L 1165.63 2086.5 H 1087.13 H 1051.63 H 996.795 C 989.06 2086.5 982.019 2082.04 978.713 2075.05 L 971.127 2059 L 948.434 1998.95 C 948.23 1998.41 948.006 1997.89 947.785 1997.35 C 945.98 1993 938.576 1971.79 964.127 1969 C 992.627 1965.88 1027.99 1968.54 1066.11 1971.5 C 1095.57 1973.79 1107.9 1974.16 1137.13 1976 C 1159.87 1977.43 1192.13 1981.5 1204.63 1982.5 S 1220.63 1998.5 1212.13 2005 C 1203.79 2011.37 1098.85 2005.25 1094.75 2005.01 C 1094.62 2005 1094.58 2005 1094.45 2004.99 C 1091.16 2004.86 1043.86 2002.96 1022.63 2002 C 1000.63 2001 985.127 2002 975.627 2005 S 966.627 2018 975.627 2023.5 C 984.145 2028.7 1004.75 2029.88 1006.94 2029.99 C 1007.07 2030 1007.19 2030 1007.33 2030 L 1130.27 2032.99 C 1130.51 2033 1130.72 2033 1130.96 2033 C 1136.68 2032.93 1215.12 2032.13 1228.13 2035.5 C 1241.63 2039 1237.13 2051 1230.63 2052.5 S 1170.58 2055.47 1127.63 2056.5 C 1101.85 2057.12 1088.61 2056.98 1063.63 2058 C 1055.23 2058.34 1049.63 2059 1042.13 2059 C 1038.85 2059 1034.72 2058.33 1031.11 2057.58 C 1025.65 2056.45 1021.21 2052.67 1018.72 2047.69 L 1016.46 2043.16 C 1015.91 2042.06 1015.43 2040.93 1014.94 2039.8 C 1009.44 2027.09 973.824 1951.65 976.627 1939.5 C 979.627 1926.5 998.128 1928.5 1007.13 1937 C 1016.13 1945.5 1067.63 2070.85 1084.63 2077.5 C 1087.9 2078.78 1091.55 2079.76 1095.31 2080.49 C 1110.15 2083.4 1119.07 2066.89 1111.37 2053.87 C 1088.83 2015.75 1052.77 1951.91 1057.63 1941.5 C 1064.63 1926.5 1085.63 1940 1090.63 1951 S 1150.13 2052.5 1157.63 2062.5 S 1177.63 2086 1186.63 2074 S 1114.13 1951.16 1132.63 1943.5 S 1178.63 1985.71 1183.63 1995 S 1234.13 2086.5 1246.13 2116.63 C 1258.13 2146.77 1214.08 2161.57 1197.13 2192.5 C 1163.28 2254.27 1178.68 2306.94 1134.13 2361.5 C 1104.5 2397.78 1079.53 2410.67 1040.13 2436 C 958.197 2488.68 901.242 2499.9 807.127 2525 C 702.268 2552.97 638.922 2557.02 532.127 2582 C 486.686 2592.63 417.315 2610.18 410.647 2611.87 C 410.267 2611.96 409.996 2612.02 409.612 2612.1 C 401.567 2613.7 301.394 2634.18 252.127 2674.5 C 227.956 2694.28 221.127 2698.5 198.127 2733.5 C 181.475 2758.84 170.483 2788.04 184.127 2819 C 201.97 2859.49 243.627 2856 290.127 2859 C 334.931 2861.89 511.56 2835.07 524.391 2833.11 C 524.929 2833.03 525.399 2832.98 525.943 2832.94 L 722.032 2819.01 C 722.095 2819 722.092 2819 722.155 2819 C 724.197 2818.87 837.402 2812.02 909.627 2819 C 987.957 2826.57 1079.63 2832 1102.13 2877 S 1068.13 2985.5 1020.13 3044 C 992.635 3077.51 982.127 3101 968.627 3134 C 920.471 3251.72 993.179 3331.86 989.627 3459 C 987.147 3547.8 986.623 3598.51 968.627 3685.5 C 952.202 3764.9 938.156 3809.01 906.127 3883.5 C 875.509 3954.71 861.68 3999.17 810.627 4057.5 C 650.329 4240.64 331.127 4057.5 191.127 4125.5 C 51.1274 4193.5 15.1682 4353.5 4.6274 4419.5 C -5.9134 4485.5 16.9521 4617.67 43.1274 4655.5 C 107.127 4748 234.301 4775.45 365.127 4836 C 457.317 4878.67 560.411 4947.95 568.162 4953.18 C 568.507 4953.42 568.75 4953.57 569.109 4953.78 C 576.659 4958.23 671.375 5013.64 738.127 5037.5 C 786.297 5054.72 824.628 5061 864.627 5071.5 C 920.664 5086.21 1024.63 5115 1024.63 5094.5 C 1024.63 5085.36 1024.63 5074.04 1024.63 5064.29 C 1024.63 5052.57 1034.66 5043.39 1046.37 5043.93 C 1058.48 5044.5 1071.13 5044.59 1071.13 5042.5 C 1071.13 5038.5 1065.63 5012 1071.13 5006 S 1138.63 4999.5 1144.63 5006 S 1141.13 5038 1144.63 5042.5 C 1146.38 5044.76 1158.18 5044.75 1169.52 5044.18 C 1181.36 5043.59 1191.63 5052.82 1191.63 5064.68 V 5240.48 C 1191.63 5251.34 1182.97 5260.21 1172.11 5260.47 L 1047.1 5263.5 C 1038.78 5263.71 1033.82 5254.28 1038.76 5247.57 C 1069.74 5205.48 1149.06 5096.92 1144.63 5094.5 C 1139.13 5091.5 1048.13 5162.5 1052.13 5166 S 1144.63 5159 1144.63 5166 S 1028.46 5254.34 964.627 5322 C 912.477 5377.28 884.361 5410.17 843.127 5474 C 805.358 5532.47 787.743 5567.89 760.627 5632 C 735.034 5692.51 723.942 5727.99 707.127 5791.5 C 689.465 5858.21 692.927 5898.75 673.627 5965 C 660.861 6008.82 634.127 6075 634.127 6075"
      stroke="url(#paint0_linear_2755_31113)" stroke-width="4" />
  </g>
  <defs>
    <filter id="filter0_b_2755_31113" x="-4" y="-4" width="1263.73" height="6083.75" filterUnits="userSpaceOnUse"
      color-interpolation-filters="sRGB">
      <feFlood flood-opacity="0" result="BackgroundImageFix" />
      <feGaussianBlur in="BackgroundImageFix" stdDeviation="2" />
      <feComposite in2="SourceAlpha" operator="in" result="effect1_backgroundBlur_2755_31113" />
      <feBlend mode="normal" in="SourceGraphic" in2="effect1_backgroundBlur_2755_31113" result="shape" />
    </filter>
    <linearGradient id="paint0_linear_2755_31113" x1="646.628" y1="415" x2="1306.13" y2="425.5"
      gradientUnits="userSpaceOnUse">
      <stop stop-color="#DD0000" />
      <stop offset="1" stop-color="#770000" />
    </linearGradient>
  </defs>
</svg>