<svg width="24" height="24" viewBox="0 0 24 24" fill="none" xmlns="http://www.w3.org/2000/svg">
<path d="M7.0505 20H3.32724V7.98722H7.0505V20ZM5.18587 6.34833C4.75602 6.35115 4.335 6.22619 3.97614 5.98927C3.61728 5.75235 3.33672 5.41414 3.17 5.01747C3.00327 4.62079 2.95789 4.1835 3.03958 3.76098C3.12128 3.33846 3.32638 2.94972 3.62892 2.64399C3.93145 2.33826 4.31781 2.1293 4.73906 2.04357C5.1603 1.95785 5.59749 1.99921 5.99524 2.16242C6.39299 2.32563 6.73341 2.60335 6.97339 2.9604C7.21336 3.31746 7.3421 3.73779 7.3433 4.16815C7.34371 4.743 7.11719 5.29472 6.71308 5.70309C6.30897 6.11146 5.76003 6.34339 5.18587 6.34833ZM20.9963 20H17.2782V14.1522C17.2782 12.7584 17.2498 10.9711 15.341 10.9711C13.4037 10.9711 13.1072 12.4855 13.1072 14.0517V20H9.38465V7.98722H12.9581V9.62611H13.0106C13.368 9.01372 13.8846 8.50989 14.5055 8.16832C15.1264 7.82676 15.8282 7.66027 16.5361 7.68659C20.3066 7.68584 21 10.1719 21 13.401V19.9985L20.9963 20Z" fill="white"/>
</svg>
