<svg width="223" height="30" viewBox="0 0 223 30" fill="none" xmlns="http://www.w3.org/2000/svg">
<g clip-path="url(#clip0_544_38347)">
<path d="M65.3799 16.5385L61.4851 9.51091L57.5397 16.5385H65.3799ZM67.4285 20.228H55.5922L53.7818 23.4536H47.5859L57.7849 5.64576H65.2646L75.2399 23.4536H69.1018L67.4285 20.228ZM76.6392 23.4536V5.64576H97.0014V9.63036H82.1282V12.7295H96.0199V16.2434H82.1282V19.469H97.0014V23.4747L76.6392 23.4536ZM115.697 11.0921C115.695 10.7592 115.619 10.4306 115.473 10.1294C115.398 9.99618 115.295 9.87991 115.171 9.78791C115.046 9.69591 114.904 9.63036 114.752 9.59527C114.347 9.45082 113.921 9.37018 113.489 9.35636C112.985 9.32118 112.314 9.30009 111.492 9.30009H111.138C111.045 9.30009 110.922 9.30009 110.777 9.30009C109.595 9.35636 108.599 9.38445 107.791 9.38445C107.139 9.37236 106.488 9.417 105.844 9.518C105.451 9.54636 105.078 9.69382 104.777 9.93964C104.528 10.2404 104.409 10.6233 104.444 11.0078C104.433 11.2047 104.472 11.4013 104.559 11.5795C104.647 11.7575 104.778 11.9114 104.943 12.0268C105.357 12.2637 105.832 12.383 106.312 12.3712L108.642 12.4274C109.363 12.4274 110.085 12.4274 110.727 12.4274H111.902C112.321 12.4274 112.718 12.4274 113.078 12.4274C114.601 12.4274 115.913 12.4695 117.031 12.5609C117.979 12.5905 118.912 12.8081 119.772 13.2005C120.488 13.5446 121.059 14.1211 121.388 14.8308C121.78 15.8078 121.956 16.854 121.907 17.9018C121.921 18.6926 121.83 19.4818 121.633 20.2491C121.487 20.8325 121.195 21.3719 120.783 21.8193C120.372 22.2667 119.854 22.6084 119.274 22.8141C118.578 23.0691 117.851 23.2299 117.111 23.292C116.62 23.3483 115.668 23.4115 114.226 23.4817C112.783 23.552 111.016 23.5872 108.823 23.5872C106.631 23.5872 104.906 23.5239 103.536 23.4045C102.507 23.3752 101.502 23.1 100.608 22.6033C100.22 22.3475 99.8864 22.0205 99.6261 21.6405C99.4274 21.2873 99.279 20.9089 99.1866 20.5161C99.112 20.1031 99.0756 19.6845 99.0784 19.2652V17.7684H104.582V18.3797C104.581 18.5841 104.627 18.7859 104.719 18.9701C104.845 19.159 105.015 19.3156 105.216 19.4268C105.562 19.5745 105.934 19.6556 106.312 19.6658C106.551 19.6658 106.991 19.6658 107.625 19.715C108.261 19.7642 109.104 19.715 110.092 19.715C111.376 19.715 112.415 19.715 113.215 19.715C113.86 19.7181 114.503 19.6568 115.134 19.5323C115.495 19.4815 115.827 19.31 116.072 19.0474C116.252 18.7686 116.338 18.4416 116.317 18.1127C116.333 17.7931 116.248 17.4763 116.072 17.2061C115.898 16.9675 115.642 16.7978 115.351 16.7283C114.986 16.6135 114.607 16.5496 114.226 16.5385C113.807 16.5385 113.338 16.5385 112.826 16.5385C111.037 16.5385 109.448 16.5385 108.058 16.5385C106.666 16.5385 105.461 16.5034 104.452 16.4331C103.575 16.3825 102.703 16.2578 101.848 16.0606C101.219 15.9155 100.637 15.6209 100.153 15.2033C99.7082 14.777 99.3873 14.2435 99.2221 13.6572C99.0187 12.8625 98.9273 12.0445 98.9487 11.2256C98.9356 10.4543 99.0084 9.68382 99.1652 8.92764C99.3014 8.34195 99.5729 7.79411 99.9583 7.32535C100.342 6.87241 100.838 6.52378 101.401 6.31338C102.112 6.03419 102.86 5.85437 103.622 5.77929C104.206 5.70901 105.144 5.63171 106.443 5.56144C107.741 5.49115 109.4 5.45602 111.376 5.45602C112.415 5.45602 113.352 5.45602 114.174 5.45602C114.914 5.4511 115.653 5.48629 116.389 5.56144C116.975 5.61653 117.555 5.72474 118.12 5.8847C118.584 5.99216 119.022 6.19063 119.404 6.46799C119.769 6.7173 120.086 7.02643 120.342 7.38157C120.577 7.69519 120.753 8.04747 120.861 8.42165C120.974 8.82364 121.047 9.23564 121.077 9.65145C121.077 10.0732 121.135 10.544 121.135 11.057L115.697 11.0921ZM129.459 13.7907C129.459 14.6973 129.459 15.4633 129.459 16.0887C129.48 16.6096 129.553 17.1273 129.675 17.6348C129.77 17.9881 129.959 18.3106 130.223 18.5695C130.527 18.8042 130.882 18.9677 131.262 19.0474C131.812 19.1667 132.373 19.2304 132.935 19.2371C133.614 19.2371 134.428 19.2371 135.373 19.2371C137.296 19.2371 138.778 19.2184 139.817 19.1809C140.626 19.1915 141.426 19.0082 142.146 18.6468C142.406 18.487 142.624 18.2716 142.785 18.0171C142.947 17.7626 143.046 17.4756 143.077 17.178C143.203 16.2039 143.259 15.2223 143.243 14.2405C143.258 13.4269 143.202 12.6135 143.077 11.8089C143.036 11.3057 142.813 10.8329 142.449 10.4737C142.042 10.1432 141.536 9.94864 141.006 9.91855C140.161 9.83236 139.311 9.79482 138.461 9.80609H133.801C132.874 9.771 131.946 9.88982 131.06 10.1575C130.77 10.2403 130.503 10.3865 130.279 10.5849C130.055 10.7835 129.88 11.029 129.768 11.303C129.518 12.1085 129.414 12.9503 129.459 13.7907ZM123.782 16.2434C123.782 14.5567 123.782 13.102 123.84 11.8933C123.859 10.8413 124.035 9.79754 124.36 8.79412C124.631 8.01249 125.133 7.32587 125.802 6.81937C126.632 6.25069 127.589 5.88435 128.593 5.75117C130.076 5.56794 131.57 5.48809 133.065 5.51224C135.233 5.47476 138.074 5.45602 141.584 5.45602C142.59 5.44105 143.594 5.5401 144.577 5.75117C145.339 5.91232 146.058 6.23105 146.683 6.68585C147.278 7.10286 147.751 7.66513 148.053 8.31625C148.412 9.094 148.643 9.92155 148.738 10.7689C148.82 11.417 148.856 12.0697 148.847 12.7225C148.847 13.5236 148.847 14.4584 148.847 15.5335C148.862 16.6417 148.781 17.7492 148.601 18.8435C148.474 19.6386 148.185 20.4008 147.75 21.0854C147.347 21.6833 146.79 22.1678 146.135 22.4909C145.347 22.8679 144.506 23.1285 143.639 23.2639C142.459 23.437 141.269 23.5356 140.076 23.5591C138.725 23.6106 137.145 23.6364 135.337 23.6364C133.289 23.6364 131.534 23.5731 130.072 23.4466C128.821 23.3953 127.593 23.0964 126.465 22.5682C125.543 22.078 124.819 21.2976 124.41 20.3545C123.935 19.0355 123.727 17.6395 123.797 16.2434H123.782ZM156.687 5.64576V18.9982H169.266V23.4255H151.097V5.64576H156.687ZM188.084 16.5385L184.197 9.51091L180.244 16.5385H188.084ZM190.111 20.228H178.318L176.508 23.4536H170.312L180.511 5.64576H188.02L197.98 23.4536H191.843L190.111 20.228ZM205.1 14.5497H213.46C213.576 14.5372 213.695 14.5372 213.812 14.5497H214.173C214.686 14.5606 215.197 14.5254 215.703 14.4443C216.018 14.406 216.315 14.2763 216.554 14.0718C216.762 13.8602 216.887 13.5841 216.907 13.2917C216.971 12.8873 217 12.4782 216.993 12.069C217.009 11.6875 216.952 11.3065 216.828 10.9445C216.752 10.6789 216.577 10.4505 216.337 10.3051C216.049 10.128 215.719 10.0264 215.378 10.0099C214.974 10.0099 214.469 9.95364 213.87 9.95364H205.1V14.5497ZM205.1 18.8787V23.4677H199.481V5.64576H216.474C217.434 5.62595 218.393 5.73231 219.323 5.96201C220.028 6.11849 220.679 6.45019 221.213 6.92478C221.723 7.39482 222.083 7.99719 222.252 8.66059C222.493 9.51391 222.605 10.397 222.583 11.2819C222.607 12.1356 222.515 12.9886 222.31 13.8188C222.185 14.3631 221.922 14.8681 221.545 15.2876C221.212 15.6415 220.8 15.9157 220.34 16.0887C219.843 16.2645 219.288 16.4401 218.667 16.6228L220.11 16.911C220.535 16.9695 220.941 17.126 221.293 17.3677C221.656 17.6193 221.932 17.9721 222.086 18.3797C222.317 18.976 222.421 19.6123 222.389 20.2491V23.4536H216.734V21.1065C216.788 20.5058 216.61 19.9073 216.236 19.4268C215.926 19.0474 215.291 18.8646 214.317 18.8646L205.1 18.8787Z" fill="#F60109"/>
<path d="M33.7841 14.5501C31.0651 15.5871 28.2287 16.3039 25.3351 16.6852C22.5388 17.0767 19.7171 17.2712 16.8921 17.267C14.0649 17.277 11.2408 17.0825 8.44306 16.6852C5.55033 16.3094 2.7152 15.5924 0 14.5501C2.71494 13.5058 5.55008 12.7869 8.44306 12.4092C11.2408 12.0119 14.0649 11.8175 16.8921 11.8275C19.7171 11.8233 22.5388 12.0176 25.3351 12.4092C28.229 12.7924 31.0654 13.5111 33.7841 14.5501Z" fill="#F60109"/>
<path d="M32.1741 8.02091C29.7126 8.94108 27.1466 9.57 24.5311 9.89418C22.0033 10.2685 19.4509 10.4628 16.8942 10.476C14.3391 10.486 11.7867 10.3149 9.25719 9.964C6.64136 9.62945 4.07567 8.99276 1.61426 8.06745C4.07435 7.13567 6.64035 6.49502 9.25719 6.15925C14.3233 5.46112 19.465 5.46112 24.5311 6.15925C27.1455 6.48269 29.7111 7.10763 32.1741 8.02091Z" fill="#F60109"/>
<path d="M26.7073 2.11478C25.1676 2.91276 23.5097 3.47215 21.7932 3.77282C20.1744 4.08075 18.5284 4.23275 16.879 4.2266C15.2297 4.23789 13.5834 4.08782 11.9649 3.77864C10.2497 3.47666 8.5937 2.91526 7.05664 2.11478C8.59405 1.31631 10.2501 0.756881 11.9649 0.456736C15.2112 -0.152245 18.5468 -0.152245 21.7932 0.456736C23.509 0.759861 25.1666 1.31912 26.7073 2.11478Z" fill="#F60109"/>
<path d="M32.1741 21.0687C29.7127 21.9941 27.1469 22.6307 24.5311 22.9654C22.0012 23.3144 19.4492 23.4893 16.8942 23.4889C14.339 23.4893 11.7871 23.3144 9.25719 22.9654C6.64081 22.6335 4.07479 21.9968 1.61426 21.0687C4.07497 20.1461 6.64129 19.5171 9.25719 19.1955C14.3233 18.4974 19.465 18.4974 24.5311 19.1955C27.1466 19.5196 29.7126 20.1486 32.1741 21.0687Z" fill="#F60109"/>
<path d="M26.7073 26.9802C25.1654 27.7732 23.5083 28.3323 21.7932 28.6383C20.1739 28.9434 18.5283 29.0953 16.879 29.0921C15.2291 29.0975 13.5828 28.9415 11.9649 28.6266C10.2501 28.3265 8.59405 27.7671 7.05664 26.9686C8.5937 26.1681 10.2497 25.6067 11.9649 25.3047C13.5834 24.9955 15.2297 24.8455 16.879 24.8567C18.5284 24.8506 20.1744 25.0026 21.7932 25.3105C23.5096 25.6179 25.167 26.181 26.7073 26.9802Z" fill="#F60109"/>
</g>
<defs>
<clipPath id="clip0_544_38347">
<rect width="223" height="30" fill="white"/>
</clipPath>
</defs>
</svg>
