<?xml version="1.0" encoding="utf-8"?>
<!-- Generator: Adobe Illustrator 26.2.1, SVG Export Plug-In . SVG Version: 6.00 Build 0)  -->
<svg version="1.1" id="Layer_1" xmlns="http://www.w3.org/2000/svg" xmlns:xlink="http://www.w3.org/1999/xlink" x="0px" y="0px"
	 viewBox="0 0 141.7 141.7" style="enable-background:new 0 0 141.7 141.7;" xml:space="preserve">
<style type="text/css">
	.st0{fill:#E1251B;}
</style>
<g id="Layer_2_00000108277837790924882980000014460349899184598914_">
	<g id="logo">
		<g id="symbol">
			<path class="st0" d="M141.7,70.9c-11.4,4.5-23.3,7.6-35.5,9.2c-11.8,1.7-23.6,2.5-35.5,2.5c-11.9,0-23.7-0.8-35.4-2.5
				c-12.1-1.6-24-4.7-35.3-9.2c11.4-4.5,23.3-7.6,35.4-9.2c11.7-1.7,23.5-2.5,35.3-2.5c11.9,0,23.7,0.8,35.4,2.5
				C118.3,63.3,130.3,66.4,141.7,70.9z"/>
			<path class="st0" d="M135,42.8c-10.3,4-21.1,6.7-32.1,8.1c-10.6,1.6-21.3,2.4-32,2.5c-10.7,0.1-21.4-0.7-32.1-2.2
				c-11-1.4-21.7-4.2-32.1-8.1c10.3-4,21.1-6.8,32.1-8.2c21.3-3,42.8-3,64.1,0C113.9,36.1,124.6,38.8,135,42.8z"/>
			<path class="st0" d="M112,17.3c-6.5,3.4-13.4,5.8-20.6,7.1c-6.8,1.3-13.7,2-20.7,2c-6.9,0.1-13.8-0.6-20.6-1.9
				c-7.2-1.3-14.1-3.7-20.6-7.2c6.5-3.5,13.4-5.9,20.7-7.2c13.6-2.6,27.6-2.6,41.2,0C98.6,11.5,105.6,13.9,112,17.3z"/>
			<path class="st0" d="M135,98.9c-10.3,4-21.1,6.8-32.1,8.3c-10.6,1.5-21.3,2.2-32,2.2c-10.7,0-21.4-0.7-32.1-2.2
				c-11-1.5-21.7-4.3-32.1-8.3c10.3-4,21.1-6.7,32.1-8.1c21.3-3,42.8-3,64.1,0C113.9,92.3,124.6,95,135,98.9z"/>
			<path class="st0" d="M112,124.4c-6.5,3.4-13.4,5.8-20.6,7.2c-6.8,1.3-13.7,2-20.6,2c-6.9,0-13.8-0.6-20.6-2
				c-7.2-1.3-14.1-3.8-20.6-7.2c6.5-3.5,13.4-5.9,20.6-7.2c6.8-1.3,13.7-1.9,20.5-1.8c6.9,0,13.8,0.6,20.6,2
				C98.6,118.5,105.5,121,112,124.4z"/>
		</g>
	</g>
</g>
</svg>
