<?xml version="1.0" encoding="UTF-8"?>
<svg id="Layer_1" data-name="Layer 1" xmlns="http://www.w3.org/2000/svg" viewBox="0 0 281.48 281.48">
  <defs>
    <style>
      .cls-1 {
        fill: #fff;
        stroke-width: 0px;
      }
    </style>
  </defs>
  <path class="cls-1" d="M53.41,251.02h174.74c-24.02,19.09-54.41,30.46-87.37,30.46s-63.35-11.3-87.37-30.46Z"/>
  <path class="cls-1" d="M265.25,206.34c-4.51,8.65-9.94,16.8-16.16,24.24H32.39c-6.22-7.44-11.65-15.59-16.16-24.24h249.02Z"/>
  <path class="cls-1" d="M279.91,161.65c-1.22,8.29-3.22,16.44-5.86,24.24H7.44c-2.64-7.79-4.65-15.94-5.86-24.24h278.33Z"/>
  <path class="cls-1" d="M281.48,140.7v.43H0v-.43C0,62.99,62.99,0,140.78,0s140.7,62.99,140.7,140.7Z"/>
</svg>